<svg width="55" height="44" viewBox="0 0 55 44" fill="none" xmlns="http://www.w3.org/2000/svg">
<path d="M52.25 2.75H2.75C1.23148 2.75 0 3.98148 0 5.5V38.5C0 40.0185 1.23148 41.25 2.75 41.25H52.25C53.7685 41.25 55 40.0185 55 38.5V5.5C55 3.98148 53.7685 2.75 52.25 2.75ZM15.125 28.1772V29.5625C15.125 29.9423 14.8173 30.25 14.4375 30.25H13.0625C12.6827 30.25 12.375 29.9423 12.375 29.5625V28.1626C11.4048 28.1127 10.4612 27.7741 9.67914 27.1872C9.34398 26.9354 9.3268 26.4335 9.63016 26.1439L10.6399 25.1805C10.878 24.9537 11.232 24.9434 11.5105 25.1178C11.843 25.3258 12.2203 25.4375 12.6122 25.4375H15.0279C15.5865 25.4375 16.042 24.9287 16.042 24.304C16.042 23.7927 15.7317 23.3423 15.2883 23.21L11.4211 22.0498C9.82351 21.5703 8.70719 20.0372 8.70719 18.321C8.70719 16.2138 10.3443 14.502 12.3741 14.4478V13.0625C12.3741 12.6827 12.6818 12.375 13.0616 12.375H14.4366C14.8165 12.375 15.1241 12.6827 15.1241 13.0625V14.4624C16.0944 14.5123 17.038 14.85 17.82 15.4378C18.1552 15.6896 18.1723 16.1915 17.869 16.4811L16.8592 17.4445C16.6212 17.6713 16.2671 17.6816 15.9887 17.5072C15.6561 17.2984 15.2788 17.1875 14.887 17.1875H12.4712C11.9127 17.1875 11.4572 17.6962 11.4572 18.321C11.4572 18.8323 11.7674 19.2827 12.2109 19.415L16.078 20.5752C17.6756 21.0547 18.792 22.5878 18.792 24.304C18.792 26.412 17.1548 28.123 15.125 28.1772ZM35.75 26.8125C35.75 27.1923 35.4423 27.5 35.0625 27.5H25.4375C25.0577 27.5 24.75 27.1923 24.75 26.8125V25.4375C24.75 25.0577 25.0577 24.75 25.4375 24.75H35.0625C35.4423 24.75 35.75 25.0577 35.75 25.4375V26.8125ZM49.5 26.8125C49.5 27.1923 49.1923 27.5 48.8125 27.5H41.9375C41.5577 27.5 41.25 27.1923 41.25 26.8125V25.4375C41.25 25.0577 41.5577 24.75 41.9375 24.75H48.8125C49.1923 24.75 49.5 25.0577 49.5 25.4375V26.8125ZM49.5 18.5625C49.5 18.9423 49.1923 19.25 48.8125 19.25H25.4375C25.0577 19.25 24.75 18.9423 24.75 18.5625V17.1875C24.75 16.8077 25.0577 16.5 25.4375 16.5H48.8125C49.1923 16.5 49.5 16.8077 49.5 17.1875V18.5625Z" fill="#D1AE31"/>
</svg>
