<svg width="168" height="44" viewBox="0 0 168 44" fill="none" xmlns="http://www.w3.org/2000/svg">
<path d="M7.68 30.216C6.448 30.216 5.28 30.056 4.176 29.736C3.088 29.4 2.2 28.952 1.512 28.392C1.144 28.12 0.96 27.736 0.96 27.24C0.96 26.904 1.056 26.616 1.248 26.376C1.456 26.12 1.696 25.992 1.968 25.992C2.256 25.992 2.584 26.104 2.952 26.328C3.64 26.824 4.36 27.184 5.112 27.408C5.864 27.632 6.696 27.744 7.608 27.744C8.776 27.744 9.672 27.544 10.296 27.144C10.92 26.728 11.232 26.128 11.232 25.344C11.232 24.736 10.936 24.272 10.344 23.952C9.768 23.616 8.8 23.296 7.44 22.992C6.032 22.688 4.888 22.336 4.008 21.936C3.128 21.536 2.464 21.024 2.016 20.4C1.568 19.776 1.344 18.984 1.344 18.024C1.344 17.032 1.624 16.144 2.184 15.36C2.744 14.576 3.52 13.968 4.512 13.536C5.52 13.088 6.648 12.864 7.896 12.864C10.184 12.864 12.048 13.472 13.488 14.688C13.696 14.864 13.84 15.04 13.92 15.216C14.016 15.376 14.064 15.584 14.064 15.84C14.064 16.176 13.96 16.472 13.752 16.728C13.56 16.968 13.328 17.088 13.056 17.088C12.896 17.088 12.744 17.064 12.6 17.016C12.472 16.968 12.296 16.88 12.072 16.752C11.416 16.272 10.776 15.92 10.152 15.696C9.544 15.456 8.792 15.336 7.896 15.336C6.808 15.336 5.944 15.56 5.304 16.008C4.68 16.44 4.368 17.048 4.368 17.832C4.368 18.488 4.648 18.992 5.208 19.344C5.768 19.696 6.72 20.024 8.064 20.328C9.488 20.648 10.64 21.008 11.52 21.408C12.416 21.792 13.096 22.288 13.56 22.896C14.04 23.504 14.28 24.264 14.28 25.176C14.28 26.168 14 27.048 13.44 27.816C12.896 28.568 12.12 29.16 11.112 29.592C10.12 30.008 8.976 30.216 7.68 30.216ZM22.2167 30.192C21.0167 30.192 19.9607 29.944 19.0487 29.448C18.1527 28.952 17.4567 28.24 16.9607 27.312C16.4647 26.384 16.2167 25.304 16.2167 24.072C16.2167 22.84 16.4647 21.768 16.9607 20.856C17.4567 19.928 18.1527 19.216 19.0487 18.72C19.9607 18.224 21.0167 17.976 22.2167 17.976C23.4167 17.976 24.4647 18.224 25.3607 18.72C26.2727 19.216 26.9687 19.928 27.4487 20.856C27.9447 21.768 28.1927 22.84 28.1927 24.072C28.1927 25.304 27.9447 26.384 27.4487 27.312C26.9687 28.24 26.2727 28.952 25.3607 29.448C24.4647 29.944 23.4167 30.192 22.2167 30.192ZM22.1927 27.864C23.1687 27.864 23.9127 27.544 24.4247 26.904C24.9367 26.264 25.1927 25.32 25.1927 24.072C25.1927 22.84 24.9367 21.904 24.4247 21.264C23.9127 20.608 23.1767 20.28 22.2167 20.28C21.2567 20.28 20.5127 20.608 19.9847 21.264C19.4727 21.904 19.2167 22.84 19.2167 24.072C19.2167 25.32 19.4727 26.264 19.9847 26.904C20.4967 27.544 21.2327 27.864 22.1927 27.864ZM44.6134 17.976C45.8934 17.976 46.8694 18.36 47.5414 19.128C48.2294 19.88 48.5734 21.104 48.5734 22.8V28.704C48.5734 29.168 48.4294 29.528 48.1414 29.784C47.8694 30.024 47.5094 30.144 47.0614 30.144C46.6294 30.144 46.2694 30.024 45.9814 29.784C45.7094 29.528 45.5734 29.168 45.5734 28.704V22.8C45.5734 21.92 45.4134 21.296 45.0934 20.928C44.7894 20.544 44.3174 20.352 43.6774 20.352C42.8934 20.352 42.2694 20.624 41.8054 21.168C41.3414 21.696 41.1094 22.424 41.1094 23.352V28.704C41.1094 29.168 40.9654 29.528 40.6774 29.784C40.4054 30.024 40.0534 30.144 39.6214 30.144C39.1894 30.144 38.8294 30.024 38.5414 29.784C38.2534 29.528 38.1094 29.168 38.1094 28.704V22.8C38.1094 21.92 37.9494 21.296 37.6294 20.928C37.3254 20.544 36.8534 20.352 36.2134 20.352C35.4294 20.352 34.8054 20.624 34.3414 21.168C33.8934 21.696 33.6694 22.424 33.6694 23.352V28.704C33.6694 29.168 33.5254 29.528 33.2374 29.784C32.9494 30.024 32.5894 30.144 32.1574 30.144C31.7254 30.144 31.3654 30.024 31.0774 29.784C30.8054 29.528 30.6694 29.168 30.6694 28.704V19.416C30.6694 18.968 30.8134 18.624 31.1014 18.384C31.3894 18.144 31.7494 18.024 32.1814 18.024C32.5974 18.024 32.9334 18.144 33.1894 18.384C33.4614 18.608 33.5974 18.936 33.5974 19.368V19.944C33.9654 19.304 34.4534 18.816 35.0614 18.48C35.6854 18.144 36.3974 17.976 37.1974 17.976C38.9574 17.976 40.1334 18.712 40.7254 20.184C41.0774 19.512 41.5974 18.976 42.2854 18.576C42.9734 18.176 43.7494 17.976 44.6134 17.976ZM60.9105 26.784C61.1825 26.784 61.3985 26.888 61.5585 27.096C61.7345 27.304 61.8225 27.584 61.8225 27.936C61.8225 28.432 61.5265 28.848 60.9345 29.184C60.3905 29.488 59.7745 29.736 59.0865 29.928C58.3985 30.104 57.7425 30.192 57.1185 30.192C55.2305 30.192 53.7345 29.648 52.6305 28.56C51.5265 27.472 50.9745 25.984 50.9745 24.096C50.9745 22.896 51.2145 21.832 51.6945 20.904C52.1745 19.976 52.8465 19.256 53.7105 18.744C54.5905 18.232 55.5825 17.976 56.6865 17.976C57.7425 17.976 58.6625 18.208 59.4465 18.672C60.2305 19.136 60.8385 19.792 61.2705 20.64C61.7025 21.488 61.9185 22.488 61.9185 23.64C61.9185 24.328 61.6145 24.672 61.0065 24.672H53.9265C54.0225 25.776 54.3345 26.592 54.8625 27.12C55.3905 27.632 56.1585 27.888 57.1665 27.888C57.6785 27.888 58.1265 27.824 58.5105 27.696C58.9105 27.568 59.3585 27.392 59.8545 27.168C60.3345 26.912 60.6865 26.784 60.9105 26.784ZM56.7585 20.088C55.9425 20.088 55.2865 20.344 54.7905 20.856C54.3105 21.368 54.0225 22.104 53.9265 23.064H59.3505C59.3185 22.088 59.0785 21.352 58.6305 20.856C58.1825 20.344 57.5585 20.088 56.7585 20.088Z" fill="#00C2FF"/>
<path d="M72.384 30.216C70.752 30.216 69.32 29.864 68.088 29.16C66.872 28.456 65.936 27.448 65.28 26.136C64.624 24.824 64.296 23.288 64.296 21.528C64.296 19.768 64.624 18.24 65.28 16.944C65.936 15.632 66.872 14.624 68.088 13.92C69.32 13.216 70.752 12.864 72.384 12.864C73.44 12.864 74.432 13.024 75.36 13.344C76.288 13.648 77.112 14.096 77.832 14.688C78.04 14.848 78.184 15.016 78.264 15.192C78.344 15.368 78.384 15.584 78.384 15.84C78.384 16.192 78.288 16.488 78.096 16.728C77.904 16.968 77.672 17.088 77.4 17.088C77.08 17.088 76.752 16.976 76.416 16.752C75.728 16.24 75.088 15.888 74.496 15.696C73.904 15.488 73.248 15.384 72.528 15.384C70.864 15.384 69.6 15.904 68.736 16.944C67.888 17.984 67.464 19.512 67.464 21.528C67.464 23.56 67.888 25.096 68.736 26.136C69.6 27.176 70.864 27.696 72.528 27.696C73.216 27.696 73.848 27.592 74.424 27.384C75.016 27.176 75.68 26.824 76.416 26.328C76.576 26.232 76.736 26.152 76.896 26.088C77.056 26.024 77.224 25.992 77.4 25.992C77.672 25.992 77.904 26.112 78.096 26.352C78.288 26.592 78.384 26.888 78.384 27.24C78.384 27.48 78.344 27.696 78.264 27.888C78.184 28.064 78.04 28.232 77.832 28.392C77.112 28.984 76.288 29.44 75.36 29.76C74.432 30.064 73.44 30.216 72.384 30.216ZM85.9433 30.192C84.7433 30.192 83.6873 29.944 82.7753 29.448C81.8793 28.952 81.1833 28.24 80.6873 27.312C80.1913 26.384 79.9433 25.304 79.9433 24.072C79.9433 22.84 80.1913 21.768 80.6873 20.856C81.1833 19.928 81.8793 19.216 82.7753 18.72C83.6873 18.224 84.7433 17.976 85.9433 17.976C87.1433 17.976 88.1913 18.224 89.0873 18.72C89.9993 19.216 90.6953 19.928 91.1753 20.856C91.6713 21.768 91.9193 22.84 91.9193 24.072C91.9193 25.304 91.6713 26.384 91.1753 27.312C90.6953 28.24 89.9993 28.952 89.0873 29.448C88.1913 29.944 87.1433 30.192 85.9433 30.192ZM85.9193 27.864C86.8953 27.864 87.6393 27.544 88.1513 26.904C88.6633 26.264 88.9193 25.32 88.9193 24.072C88.9193 22.84 88.6633 21.904 88.1513 21.264C87.6393 20.608 86.9033 20.28 85.9433 20.28C84.9833 20.28 84.2393 20.608 83.7113 21.264C83.1993 21.904 82.9433 22.84 82.9433 24.072C82.9433 25.32 83.1993 26.264 83.7113 26.904C84.2233 27.544 84.9593 27.864 85.9193 27.864ZM108.34 17.976C109.62 17.976 110.596 18.36 111.268 19.128C111.956 19.88 112.3 21.104 112.3 22.8V28.704C112.3 29.168 112.156 29.528 111.868 29.784C111.596 30.024 111.236 30.144 110.788 30.144C110.356 30.144 109.996 30.024 109.708 29.784C109.436 29.528 109.3 29.168 109.3 28.704V22.8C109.3 21.92 109.14 21.296 108.82 20.928C108.516 20.544 108.044 20.352 107.404 20.352C106.62 20.352 105.996 20.624 105.532 21.168C105.068 21.696 104.836 22.424 104.836 23.352V28.704C104.836 29.168 104.692 29.528 104.404 29.784C104.132 30.024 103.78 30.144 103.348 30.144C102.916 30.144 102.556 30.024 102.268 29.784C101.98 29.528 101.836 29.168 101.836 28.704V22.8C101.836 21.92 101.676 21.296 101.356 20.928C101.052 20.544 100.58 20.352 99.9399 20.352C99.1559 20.352 98.5319 20.624 98.0679 21.168C97.6199 21.696 97.3959 22.424 97.3959 23.352V28.704C97.3959 29.168 97.2519 29.528 96.9639 29.784C96.6759 30.024 96.3159 30.144 95.8839 30.144C95.4519 30.144 95.0919 30.024 94.8039 29.784C94.5319 29.528 94.3959 29.168 94.3959 28.704V19.416C94.3959 18.968 94.5399 18.624 94.8279 18.384C95.1159 18.144 95.4759 18.024 95.9079 18.024C96.3239 18.024 96.6599 18.144 96.9159 18.384C97.1879 18.608 97.3239 18.936 97.3239 19.368V19.944C97.6919 19.304 98.1799 18.816 98.7879 18.48C99.4119 18.144 100.124 17.976 100.924 17.976C102.684 17.976 103.86 18.712 104.452 20.184C104.804 19.512 105.324 18.976 106.012 18.576C106.7 18.176 107.476 17.976 108.34 17.976ZM122.093 17.976C123.101 17.976 123.997 18.232 124.781 18.744C125.581 19.256 126.197 19.984 126.629 20.928C127.077 21.856 127.301 22.928 127.301 24.144C127.301 25.36 127.077 26.424 126.629 27.336C126.197 28.248 125.589 28.952 124.805 29.448C124.021 29.944 123.117 30.192 122.093 30.192C121.261 30.192 120.517 30.016 119.861 29.664C119.205 29.312 118.701 28.824 118.349 28.2V33.096C118.349 33.512 118.213 33.84 117.941 34.08C117.669 34.32 117.309 34.44 116.861 34.44C116.413 34.44 116.045 34.312 115.757 34.056C115.485 33.8 115.349 33.464 115.349 33.048V19.44C115.349 19.008 115.477 18.664 115.733 18.408C116.005 18.152 116.365 18.024 116.813 18.024C117.261 18.024 117.621 18.152 117.893 18.408C118.165 18.664 118.301 19.008 118.301 19.44V20.04C118.653 19.384 119.157 18.88 119.813 18.528C120.485 18.16 121.245 17.976 122.093 17.976ZM121.301 27.864C122.245 27.864 122.981 27.544 123.509 26.904C124.037 26.248 124.301 25.328 124.301 24.144C124.301 22.928 124.037 21.984 123.509 21.312C122.981 20.64 122.245 20.304 121.301 20.304C120.341 20.304 119.597 20.632 119.069 21.288C118.557 21.944 118.301 22.88 118.301 24.096C118.301 25.296 118.557 26.224 119.069 26.88C119.597 27.536 120.341 27.864 121.301 27.864ZM134.851 17.976C136.483 17.976 137.691 18.384 138.475 19.2C139.275 20 139.675 21.224 139.675 22.872V28.728C139.675 29.16 139.547 29.504 139.291 29.76C139.035 30 138.683 30.12 138.235 30.12C137.819 30.12 137.475 29.992 137.203 29.736C136.947 29.48 136.819 29.144 136.819 28.728V28.2C136.547 28.824 136.115 29.312 135.523 29.664C134.947 30.016 134.275 30.192 133.507 30.192C132.723 30.192 132.011 30.032 131.371 29.712C130.731 29.392 130.227 28.952 129.859 28.392C129.491 27.832 129.307 27.208 129.307 26.52C129.307 25.656 129.523 24.976 129.955 24.48C130.403 23.984 131.123 23.624 132.115 23.4C133.107 23.176 134.475 23.064 136.219 23.064H136.819V22.512C136.819 21.728 136.651 21.16 136.315 20.808C135.979 20.44 135.435 20.256 134.683 20.256C134.219 20.256 133.747 20.328 133.267 20.472C132.787 20.6 132.219 20.792 131.563 21.048C131.147 21.256 130.843 21.36 130.651 21.36C130.363 21.36 130.123 21.256 129.931 21.048C129.755 20.84 129.667 20.568 129.667 20.232C129.667 19.96 129.731 19.728 129.859 19.536C130.003 19.328 130.235 19.136 130.555 18.96C131.115 18.656 131.779 18.416 132.547 18.24C133.331 18.064 134.099 17.976 134.851 17.976ZM134.107 28.032C134.907 28.032 135.555 27.768 136.051 27.24C136.563 26.696 136.819 26 136.819 25.152V24.648H136.387C135.315 24.648 134.483 24.696 133.891 24.792C133.299 24.888 132.875 25.056 132.619 25.296C132.363 25.536 132.235 25.864 132.235 26.28C132.235 26.792 132.411 27.216 132.763 27.552C133.131 27.872 133.579 28.032 134.107 28.032ZM149.54 17.976C150.948 17.976 151.996 18.376 152.684 19.176C153.372 19.976 153.716 21.184 153.716 22.8V28.704C153.716 29.152 153.58 29.504 153.308 29.76C153.052 30.016 152.692 30.144 152.228 30.144C151.764 30.144 151.396 30.016 151.124 29.76C150.852 29.504 150.716 29.152 150.716 28.704V22.968C150.716 22.056 150.54 21.392 150.188 20.976C149.852 20.56 149.316 20.352 148.58 20.352C147.716 20.352 147.02 20.624 146.492 21.168C145.98 21.712 145.724 22.44 145.724 23.352V28.704C145.724 29.152 145.588 29.504 145.316 29.76C145.044 30.016 144.676 30.144 144.212 30.144C143.748 30.144 143.38 30.016 143.108 29.76C142.852 29.504 142.724 29.152 142.724 28.704V19.416C142.724 19 142.86 18.664 143.132 18.408C143.404 18.152 143.772 18.024 144.236 18.024C144.652 18.024 144.988 18.152 145.244 18.408C145.516 18.648 145.652 18.968 145.652 19.368V20.016C146.052 19.36 146.588 18.856 147.26 18.504C147.932 18.152 148.692 17.976 149.54 17.976ZM164.947 18.888C165.075 18.6 165.243 18.392 165.451 18.264C165.675 18.12 165.915 18.048 166.171 18.048C166.539 18.048 166.867 18.176 167.155 18.432C167.459 18.672 167.611 18.976 167.611 19.344C167.611 19.52 167.563 19.704 167.467 19.896L160.915 33.624C160.643 34.168 160.219 34.44 159.643 34.44C159.275 34.44 158.947 34.32 158.659 34.08C158.387 33.856 158.251 33.568 158.251 33.216C158.251 33.04 158.299 32.84 158.395 32.616L160.027 29.184L155.563 19.896C155.483 19.736 155.443 19.552 155.443 19.344C155.443 18.976 155.595 18.664 155.899 18.408C156.219 18.152 156.579 18.024 156.979 18.024C157.251 18.024 157.499 18.096 157.723 18.24C157.947 18.368 158.123 18.576 158.251 18.864L161.611 26.28L164.947 18.888Z" fill="#0075FF"/>
</svg>
